<?xml version="1.0" encoding="UTF-8" standalone="no"?>
<!DOCTYPE svg PUBLIC "-//W3C//DTD SVG 1.1//EN" "http://www.w3.org/Graphics/SVG/1.1/DTD/svg11.dtd">
<svg version="1.1" xmlns="http://www.w3.org/2000/svg" xmlns:xlink="http://www.w3.org/1999/xlink" preserveAspectRatio="xMidYMid meet" viewBox="0 0 640 640" width="512" height="512"><defs><path d="M255.34 140.58C247.49 117.27 225.43 100.42 199.5 100.42C173.57 100.42 151.51 117.27 143.66 140.58C139.2 140.58 103.54 140.58 99.08 140.58C88.73 140.58 80.33 148.98 80.33 159.33C80.33 169.69 88.73 178.08 99.08 178.08C103.54 178.08 139.2 178.08 143.66 178.08C151.51 201.4 173.57 218.25 199.5 218.25C225.43 218.25 247.49 201.4 255.34 178.08C283.9 178.08 512.36 178.08 540.92 178.08C551.27 178.08 559.67 169.69 559.67 159.33C559.67 148.98 551.27 140.58 540.92 140.58C483.8 140.58 283.9 140.58 255.34 140.58ZM178.08 159.33C178.08 147.53 187.69 137.92 199.5 137.92C211.31 137.92 220.92 147.53 220.92 159.33C220.92 171.14 211.31 180.75 199.5 180.75C187.69 180.75 178.08 171.14 178.08 159.33Z" id="donccfcnh"></path><path d="M496.34 301.25C488.49 277.93 466.43 261.08 440.5 261.08C414.57 261.08 392.51 277.93 384.66 301.25C356.1 301.25 127.64 301.25 99.08 301.25C88.73 301.25 80.33 309.65 80.33 320C80.33 330.36 88.73 338.75 99.08 338.75C127.64 338.75 356.1 338.75 384.66 338.75C392.51 362.07 414.57 378.92 440.5 378.92C466.43 378.92 488.49 362.07 496.34 338.75C500.8 338.75 536.46 338.75 540.92 338.75C551.27 338.75 559.67 330.36 559.67 320C559.67 309.65 551.27 301.25 540.92 301.25C532 301.25 500.8 301.25 496.34 301.25ZM419.08 320C419.08 308.19 428.69 298.58 440.5 298.58C452.31 298.58 461.92 308.19 461.92 320C461.92 331.81 452.31 341.42 440.5 341.42C428.69 341.42 419.08 331.81 419.08 320Z" id="b4Hy5aUERu"></path><path d="M335.67 461.92C327.82 438.6 305.77 421.75 279.83 421.75C253.9 421.75 231.85 438.6 223.99 461.92C211.5 461.92 111.57 461.92 99.08 461.92C88.73 461.92 80.33 470.31 80.33 480.67C80.33 491.02 88.73 499.42 99.08 499.42C111.57 499.42 211.5 499.42 223.99 499.42C231.85 522.74 253.9 539.58 279.83 539.58C305.77 539.58 327.82 522.74 335.67 499.42C356.2 499.42 520.39 499.42 540.92 499.42C551.27 499.42 559.67 491.02 559.67 480.67C559.67 470.31 551.27 461.92 540.92 461.92C499.87 461.92 356.2 461.92 335.67 461.92ZM258.42 480.67C258.42 468.86 268.02 459.25 279.83 459.25C291.64 459.25 301.25 468.86 301.25 480.67C301.25 492.48 291.64 502.08 279.83 502.08C268.02 502.08 258.42 492.48 258.42 480.67Z" id="c3anM6HONE"></path></defs><g><g><g><use xlink:href="#donccfcnh" opacity="1" fill="#000000" fill-opacity="1"></use><g><use xlink:href="#donccfcnh" opacity="1" fill-opacity="0" stroke="#000000" stroke-width="1" stroke-opacity="0"></use></g></g><g><use xlink:href="#b4Hy5aUERu" opacity="1" fill="#000000" fill-opacity="1"></use><g><use xlink:href="#b4Hy5aUERu" opacity="1" fill-opacity="0" stroke="#000000" stroke-width="1" stroke-opacity="0"></use></g></g><g><use xlink:href="#c3anM6HONE" opacity="1" fill="#000000" fill-opacity="1"></use><g><use xlink:href="#c3anM6HONE" opacity="1" fill-opacity="0" stroke="#000000" stroke-width="1" stroke-opacity="0"></use></g></g></g></g></svg>